<svg xmlns="http://www.w3.org/2000/svg" viewBox="0 0 728.6 146.4" fill="#ef3124"><path class="cls-1" d="M703.61 28.91l-24.86 27.86V28.91h-17.99v70.34h17.99V69.64l26.61 29.61h23.24L695.87 62.4l30.36-33.49h-22.62zm-74.57 26.24h-24.87V28.91h-17.99v70.34h17.99V71.52h24.87v27.73h17.99V28.91h-17.99v26.24zM106.82 67c-.43 13.12-2.12 15.74-9.5 15.74v16.51h2.75c18.39 0 22.81-9.49 23.49-30.61l.75-23.36h17.24v54h18V28.92h-51.48zm97.44-16.72h-13V28.91h-18v70.34h31.24c19.61 0 26.61-12.74 26.61-24.73 0-15.5-9.75-24.24-26.86-24.24m-1.38 33.48h-11.61V65.9h11.62c6.25 0 10 2.74 10 8.62 0 6.37-3.63 9.24-10 9.24m86.83-56.47V1.18h-18v26.11C251.11 29 237.24 43.66 237.24 64s13.87 35.11 34.48 36.86v26.48h18v-26.46C310.33 99.25 324.2 84.51 324.2 64s-13.87-35.11-34.49-36.73m-18 56.6c-10-1.38-16.24-8.87-16.24-19.87s6.25-18.49 16.24-19.86zm18 0V44.16C299.71 45.53 306 53 306 64s-6.25 18.49-16.25 19.87m101.91-6.23V54c0-17.24-11-28.11-29.48-28.11-19.12 0-29.24 11.49-30.11 23.48h18.24c.62-2.62 3.37-7.12 11.87-7.12 7 0 11.49 3.25 11.49 11.75H355.8c-16 0-25.48 8.37-25.48 22.36C330.32 91 340.7 101 355.68 101c11 0 17.08-5.19 19.74-9.12 2.37 4.75 7.62 7.37 14.49 7.37h6.25V83c-3.25 0-4.5-1.5-4.5-5.37m-18-4.62c0 8.12-5.75 12.74-13.24 12.74-6.5 0-11.62-2.37-11.62-9.37s5.62-8 10.49-8h14.37zm95.09-34.1h-20.12V19.05h46.6V1.18h-65.46v98.07h39c21.61 0 34-10.74 34-30.48 0-18.62-12.37-29.86-34-29.86m-.88 42.6h-19.26V56h19.24c10 0 15.62 4.62 15.62 12.74 0 8.37-5.62 12.74-15.62 12.74m103.7-3.84V54c0-17.24-11-28.11-29.49-28.11C523 25.92 512.85 37.41 512 49.4h18.24c.63-2.62 3.38-7.12 11.87-7.12 7 0 11.5 3.25 11.5 11.75h-17.9c-16 0-25.49 8.37-25.49 22.36 0 14.61 10.39 24.61 25.37 24.61 11 0 17.07-5.19 19.74-9.12 2.37 4.75 7.62 7.37 14.49 7.37h6.24V83c-3.24 0-4.49-1.5-4.49-5.37m-18-4.62c0 8.12-5.75 12.74-13.25 12.74-6.49 0-11.62-2.37-11.62-9.37s5.63-8 10.5-8h14.37zM0 126.41h96.2v19.99H0zM65.59 14.64C62.84 6.46 59.68 0 48.85 0s-14.2 6.43-17.08 14.64L2 99.25h19.74l6.87-20.11h38L73 99.25h21zM34.36 62.15L47.85 22h.5l12.74 40.15z"/></svg>