<?xml version="1.0" encoding="UTF-8"?>
<!-- Generator: visioncortex VTracer 0.6.12 -->
<svg version="1.1" xmlns="http://www.w3.org/2000/svg" width="1791" height="592">
<path d="M0 0 C591.03 0 1182.06 0 1791 0 C1791 195.36 1791 390.72 1791 592 C1199.97 592 608.94 592 0 592 C0 396.64 0 201.28 0 0 Z " fill="#000000" transform="translate(0,0)"/>
<path d="M0 0 C115.17 0 230.34 0 349 0 C347.21985217 7.12059132 343.28855236 13.46921292 340 20 C337.33135629 25.66573587 334.66462959 31.33237516 332 37 C330.659375 39.536875 329.31875 42.07375 327.9375 44.6875 C325 51 325 51 326 57 C327.91221993 59.94835671 329.9501195 62.81657678 332.0625 65.625 C337.255199 72.626328 342.20308796 79.7189728 347 87 C348.65 89.31 350.3 91.62 352 94 C349.78053994 99.54865015 346.97046948 104.34638941 343.9375 109.5 C343.31488281 110.56025391 343.31488281 110.56025391 340.1640625 115.92578125 C338.78992188 118.26027344 337.41578125 120.59476562 336 123 C332.93702949 128.22889108 329.87452801 133.45805694 326.8125 138.6875 C319.41538462 151.30769231 319.41538462 151.30769231 316 157 C317.17844996 162.89224978 319.29596137 165.36814548 323 170.0625 C324.17175781 171.56167969 325.34351563 173.06085938 326.55078125 174.60546875 C327.11990234 175.33056641 327.11990234 175.33056641 330 179 C338.5862069 190.37931034 338.5862069 190.37931034 341 194 C339.97191295 200.16852228 338.19969923 205.37551915 336.0625 211.25 C335.26070313 213.456875 334.45890625 215.66375 333.6328125 217.9375 C330.16491629 227.24010586 326.53989502 236.4780722 322.87109375 245.703125 C321 251 321 251 321 256 C323.69235604 260.3885113 326.52899939 264.68915483 329.4375 268.9375 C331.07203125 271.35320312 332.7065625 273.76890625 334.390625 276.2578125 C336.99725157 280.0705561 339.60838803 283.88025224 342.234375 287.6796875 C348.10453917 296.37276501 348.10453917 296.37276501 347 303 C345.35001619 306.46607336 343.58751195 309.87959039 341.75 313.25 C340.79609375 315.02890625 339.8421875 316.8078125 338.859375 318.640625 C334.54553384 325.2174648 330.69512306 325.06580718 322.96484375 326.734375 C319.62324068 327.41043938 316.28073378 328.0820464 312.9375 328.75 C309.36569924 329.47303923 305.79408529 330.19700189 302.22265625 330.921875 C300.46969238 331.27701172 298.71672852 331.63214844 296.91064453 331.99804688 C282.94931853 334.8466738 269.03133622 337.90354009 255.109375 340.9375 C238.1437197 344.62690115 221.1661073 348.19212769 204.1328125 351.5546875 C194.66756211 353.47261885 185.24731208 355.5717761 175.828125 357.703125 C118.60796655 370.43576079 58.61967713 361 0 361 C0 241.87 0 122.74 0 0 Z " fill="#FBFBFB" transform="translate(7,133)"/>
<path d="M0 0 C62.04 0 124.08 0 188 0 C188 6.27 188 12.54 188 19 C129.59 19.33 71.18 19.66 11 20 C7.7 26.27 4.4 32.54 1 39 C62.71 39 124.42 39 188 39 C188 129.42 188 219.84 188 313 C171.314375 313.0928125 171.314375 313.0928125 86.875 313.5625 C81.60329834 313.60346802 81.60329834 313.60346802 54.92529297 313.81079102 C42.06665039 313.85144043 42.06665039 313.85144043 36.05007935 313.85899353 C31.84108934 313.87282878 27.63213537 313.90451358 23.42337036 313.95018005 C17.05358761 314.01584898 10.68598736 314.02516155 4.31591797 314.02172852 C3.37582351 314.03792 3.37582351 314.03792 -1.38162422 314.11985874 C-6.57180786 314.08229065 -6.57180786 314.08229065 -15 313 C-19.02633667 308.73155212 -19.02633667 308.73155212 -21 304 C-21.95519531 302.44023437 -22.91039062 300.88046875 -23.89453125 299.2734375 C-24.85746094 297.65695312 -25.82039063 296.04046875 -26.8125 294.375 C-27.8540625 292.62960937 -28.895625 290.88421875 -29.96875 289.0859375 C-30.46890625 288.24675781 -30.46890625 288.24675781 -33 284 C-34.588125 281.36 -36.17625 278.72 -37.8125 276 C-39.194375 273.69 -40.57625 271.38 -42 269 C-43.36125 266.855 -44.7225 264.71 -46.125 262.5 C-49 257 -49 257 -48 250 C-46.13050919 246.17360629 -44.13438762 242.40819434 -42.0625 238.6875 C-40.87914062 236.54894531 -39.69578125 234.41039062 -38.4765625 232.20703125 C-37.32929688 230.15871094 -36.18203125 228.11039063 -35 226 C-33.3122019 222.95849874 -31.62466899 219.91685028 -29.9375 216.875 C-27.21107642 211.97371551 -24.48295868 207.07342715 -21.75 202.17578125 C-21.2034375 201.18771484 -21.2034375 201.18771484 -18.4375 196.1875 C-17.42558594 194.36605469 -16.41367187 192.54460937 -15.37109375 190.66796875 C-13 186 -13 186 -12 181 C-15.78300596 174.83651118 -19.6573303 168.88900102 -23.75 162.9375 C-24.31203125 162.10702148 -24.31203125 162.10702148 -27.15625 157.90429688 C-35.05010166 146.26653112 -35.05010166 146.26653112 -39 141 C-35.62719327 127.50877308 -24.32549118 114.1680591 -16.80859375 102.60546875 C-14 98 -14 98 -13 94 C-14.77516802 89.3892117 -16.69468348 84.83348138 -18.6875 80.3125 C-19.76386719 77.85425781 -20.84023438 75.39601563 -21.94921875 72.86328125 C-22.95597656 70.59839844 -23.96273438 68.33351563 -25 66 C-29 57 -29 57 -27 51 C-18.66569141 33.67771155 -9.53595567 16.68792243 0 0 Z " fill="#030303" transform="translate(393,133)"/>
<path d="M0 0 C26.56373881 -0.06936236 53.12745625 -0.12274117 79.69126701 -0.15543652 C92.02451642 -0.17112476 104.3577041 -0.1924208 116.69091797 -0.22631836 C128.58232356 -0.25879888 140.4736696 -0.27682918 152.36511612 -0.28463173 C156.91294417 -0.29019559 161.46076878 -0.30105953 166.00857162 -0.31719017 C172.35458292 -0.33881348 178.7003448 -0.34197318 185.04638672 -0.34057617 C186.94674683 -0.351362 188.84710693 -0.36214783 190.80505371 -0.3732605 C195.20511594 -0.36270592 199.60440892 -0.19859006 204 0 C206 3 206 3 206 6 C203.793125 7.299375 201.58625 8.59875 199.3125 9.9375 C174.19458181 25.23487875 157.44141949 49.02272397 149 77 C142.38491772 111.6721554 146.81240825 144.21861237 166.75 174.125 C171.84012666 180.79064206 177.29179418 186.86367874 183 193 C183.66 194.32 184.32 195.64 185 197 C181.88046875 197.6290625 178.7609375 198.258125 175.546875 198.90625 C150.30394175 204.01541648 125.10633257 209.25064984 100 215 C97.050625 215.46277344 94.10125 215.92554688 91.0625 216.40234375 C80.97574766 219.65219371 78.97525002 223.01438278 74 232.1875 C72.68 234.55292969 71.36 236.91835938 70 239.35546875 C69.01 241.21816406 68.02 243.08085937 67 245 C64.59178514 247.40821486 54.2087064 246.13170289 51.5 246.1328125 C48.53 246.13410156 45.56 246.13539063 42.5 246.13671875 C39.365 246.13285156 36.23 246.12898437 33 246.125 C31.4325 246.12693359 31.4325 246.12693359 23.5 246.13671875 C20.53 246.13542969 17.56 246.13414062 14.5 246.1328125 C13.12328125 246.13224854 13.12328125 246.13224854 6.15625 246.12939453 C0 246 0 246 -1 245 C-1.350625 242.7725 -1.70125 240.545 -2.0625 238.25 C-5.00883784 225.70430338 -10.65995905 216.72056391 -21 209 C-28.29533793 205.14269489 -33.72778316 203.65444337 -42 202 C-42 149.2 -42 96.4 -42 42 C-39.69 41.505 -39.69 41.505 -28 39 C-15.01867634 33.19983411 -8.59890922 24.89051192 -3 12 C-1.95814532 8.01069695 -0.95197626 4.01170054 0 0 Z " fill="#010101" transform="translate(107,191)"/>
<path d="M0 0 C62.04 0 124.08 0 188 0 C188 6.27 188 12.54 188 19 C129.59 19.33 71.18 19.66 11 20 C7.7 26.27 4.4 32.54 1 39 C62.71 39 124.42 39 188 39 C188 129.42 188 219.84 188 313 C171.314375 313.0928125 171.314375 313.0928125 86.875 313.5625 C81.60329834 313.60346802 81.60329834 313.60346802 54.92529297 313.81079102 C42.06665039 313.85144043 42.06665039 313.85144043 36.05007935 313.85899353 C31.84108934 313.87282878 27.63213537 313.90451358 23.42337036 313.95018005 C17.05358761 314.01584898 10.68598736 314.02516155 4.31591797 314.02172852 C3.37582351 314.03792 3.37582351 314.03792 -1.38162422 314.11985874 C-6.57180786 314.08229065 -6.57180786 314.08229065 -15 313 C-19.02633667 308.73155212 -19.02633667 308.73155212 -21 304 C-21.95519531 302.44023437 -22.91039062 300.88046875 -23.89453125 299.2734375 C-24.85746094 297.65695312 -25.82039063 296.04046875 -26.8125 294.375 C-27.8540625 292.62960937 -28.895625 290.88421875 -29.96875 289.0859375 C-30.46890625 288.24675781 -30.46890625 288.24675781 -33 284 C-34.588125 281.36 -36.17625 278.72 -37.8125 276 C-39.194375 273.69 -40.57625 271.38 -42 269 C-43.36125 266.855 -44.7225 264.71 -46.125 262.5 C-49 257 -49 257 -48 250 C-46.13050919 246.17360629 -44.13438762 242.40819434 -42.0625 238.6875 C-40.87914062 236.54894531 -39.69578125 234.41039062 -38.4765625 232.20703125 C-37.32929688 230.15871094 -36.18203125 228.11039063 -35 226 C-33.3122019 222.95849874 -31.62466899 219.91685028 -29.9375 216.875 C-27.21107642 211.97371551 -24.48295868 207.07342715 -21.75 202.17578125 C-21.2034375 201.18771484 -21.2034375 201.18771484 -18.4375 196.1875 C-17.42558594 194.36605469 -16.41367187 192.54460937 -15.37109375 190.66796875 C-13 186 -13 186 -12 181 C-15.78300596 174.83651118 -19.6573303 168.88900102 -23.75 162.9375 C-24.31203125 162.10702148 -24.31203125 162.10702148 -27.15625 157.90429688 C-35.05010166 146.26653112 -35.05010166 146.26653112 -39 141 C-35.62719327 127.50877308 -24.32549118 114.1680591 -16.80859375 102.60546875 C-14 98 -14 98 -13 94 C-14.77516802 89.3892117 -16.69468348 84.83348138 -18.6875 80.3125 C-19.76386719 77.85425781 -20.84023438 75.39601563 -21.94921875 72.86328125 C-22.95597656 70.59839844 -23.96273438 68.33351563 -25 66 C-29 57 -29 57 -27 51 C-18.66569141 33.67771155 -9.53595567 16.68792243 0 0 Z M-7 58 C-3.60909732 68.17270805 0.57102806 77.87708849 4.796875 87.7265625 C7 94 7 94 6 101 C3.4601222 105.40884448 0.76259616 109.72718461 -2 114 C-4.10735263 117.33132006 -6.2113883 120.66474017 -8.3125 124 C-9.31925781 125.588125 -10.32601562 127.17625 -11.36328125 128.8125 C-13.27772088 131.85291376 -15.15144926 134.9190821 -17 138 C-14.06888284 145.3277929 -9.40549825 151.49413805 -5 158 C-2.85236121 161.22796618 -0.70652586 164.45713297 1.4375 167.6875 C4.21539691 171.87064332 6.98701976 175.98269302 10 180 C8.77890848 186.10545758 6.25170269 190.41017763 3.25 195.875 C2.66089844 196.94878906 2.66089844 196.94878906 -0.3203125 202.3828125 C-3.73227068 208.51854196 -7.16774618 214.63969768 -10.625 220.75 C-11.15351563 221.68521484 -11.15351563 221.68521484 -13.828125 226.41796875 C-15.96632591 230.18088636 -18.1230188 233.93334871 -20.296875 237.67578125 C-21.31265625 239.45339844 -22.3284375 241.23101562 -23.375 243.0625 C-24.29023438 244.64160156 -25.20546875 246.22070312 -26.1484375 247.84765625 C-28 252 -28 252 -27 258 C-25.28575787 261.17996151 -23.45759801 264.29938871 -21.5625 267.375 C-20.57378906 268.99148438 -19.58507812 270.60796875 -18.56640625 272.2734375 C-17.38949219 274.16320312 -16.21257812 276.05296875 -15 278 C-13.89213135 280.72588379 -12.7842627 283.45176758 -11.64282227 286.26025391 C-7.8524697 292.25173313 -5.99057015 293.76773116 1.00395203 295.4078064 C8.99777644 295.85842104 16.84813676 295.79557168 24.8515625 295.5625 C27.76729095 295.53986084 30.68301941 295.51722168 33.68710327 295.49389648 C43.00240525 295.40431098 52.31155787 295.20352005 61.625 295 C67.93871321 294.91975602 74.25252287 294.84675011 80.56640625 294.78125 C96.04636992 294.60481473 111.52274573 294.33705396 127 294 C127.44859375 291.63714844 127.8971875 289.27429688 128.359375 286.83984375 C131.13080763 273.59635496 136.3290198 264.97620451 147.4375 257.1875 C154.69816667 253.02689326 160.68086392 251.03989201 169 250 C169 200.83 169 151.66 169 101 C164.71 100.01 160.42 99.02 156 98 C143.00188338 92.0660772 135.52449713 84.1535646 130 71 C129.01 66.71 128.02 62.42 127 58 C82.78 58 38.56 58 -7 58 Z " fill="#FAFBFA" transform="translate(393,133)"/>
<path d="M0 0 C99 0 198 0 300 0 C298 6 298 6 291 20 C201.57 20 112.14 20 20 20 C20 113.72 20 207.44 20 304 C98.13349836 303.36476831 147.23546829 302.35608386 217.7578125 287.19140625 C230.82019209 284.38843213 243.8994055 281.66670856 256.9765625 278.93359375 C268.37592302 276.49087364 279.72499309 273.85043111 291.06640625 271.15234375 C297 270 297 270 302 271 C303.98 273.64 305.96 276.28 308 279 C307 284 307 284 304 288 C299.93933626 289.18207222 295.82252755 290.17490107 291.6875 291.0625 C289.46386719 291.54847656 287.24023438 292.03445313 284.94921875 292.53515625 C282.65597656 293.01855469 280.36273438 293.50195312 278 294 C275.89625 294.45632813 273.7925 294.91265625 271.625 295.3828125 C263.33350506 297.14135702 255.02950945 298.83065323 246.72241211 300.51367188 C214.86268784 306.96934634 214.86268784 306.96934634 201.4375 310 C124.7645871 327.11767358 93.63477676 323 0 323 C0 216.41 0 109.82 0 0 Z " fill="#040404" transform="translate(26,152)"/>
<path d="M0 0 C28.05 0 56.1 0 85 0 C85 8.91 85 17.82 85 27 C69.16 27 53.32 27 37 27 C37 38.22 37 49.44 37 61 C38.32 60.9690625 38.32 60.9690625 45 60.8125 C61.2427089 60.86353758 73.92772768 63.18812357 85.875 74.75 C94.32379524 86.24036152 96.29007945 97.86963229 96.3125 111.875 C96.32925781 114.28554688 96.34601563 116.69609375 96.36328125 119.1796875 C95.71136462 131.41889644 91.8348309 142.08718795 83.125 150.9375 C59.40942621 168.5445169 27.33951236 161 0 161 C0 107.87 0 54.74 0 0 Z " fill="#F9F9F9" transform="translate(1373,228)"/>
<path d="M0 0 C11.95659031 9.99112341 17.03615344 20.27151681 18.5625 35.8125 C18.70479011 42.15667611 18.65383272 48.46487628 18.5625 54.8125 C6.6825 54.8125 -5.1975 54.8125 -17.4375 54.8125 C-17.6328125 48.26953125 -17.828125 41.7265625 -18.0234375 35.18359375 C-18.4375 28.8125 -18.4375 28.8125 -20.4375 21.8125 C-25.4375 19.8125 -25.4375 19.8125 -35.4375 19.8125 C-43.39119744 27.76619744 -42.68222801 35.13794683 -42.74104309 45.96983337 C-42.74013168 47.8553743 -42.73922028 49.74091522 -42.73828125 51.68359375 C-42.74042381 52.65687874 -42.74042381 52.65687874 -42.75126648 57.58229065 C-42.75700729 61.69686494 -42.75751189 65.81144938 -42.75317383 69.92602539 C-42.75001388 76.22234392 -42.77347868 82.51819268 -42.79882812 88.81445312 C-42.8011011 92.81249941 -42.80180462 96.81054695 -42.80078125 100.80859375 C-42.809991 102.69211044 -42.81920074 104.57562714 -42.82868958 106.51622009 C-42.79910148 114.87017957 -42.4013194 120.90898161 -39.4375 128.8125 C-34.4375 132.8125 -34.4375 132.8125 -26.4375 132.8125 C-20.4375 128.8125 -20.4375 128.8125 -18.4375 123.8125 C-18.1396869 119.21325432 -17.94350518 114.60701542 -17.8125 110 C-17.68875 105.648125 -17.565 101.29625 -17.4375 96.8125 C-5.8875 96.8125 5.6625 96.8125 17.5625 96.8125 C18.11986906 133.04148904 18.11986906 133.04148904 7.5625 145.8125 C-1.23838256 154.87223205 -10.6038471 158.52776446 -23.15625 159.05078125 C-38.93974377 159.22352686 -52.70207657 159.26695207 -65.4375 148.8125 C-78.3421262 133.44081291 -80.75109985 116.95360341 -80.6328125 97.43359375 C-80.6299826 95.67064468 -80.62715271 93.90769562 -80.62423706 92.09132385 C-80.61306938 86.47747931 -80.58797029 80.86379608 -80.5625 75.25 C-80.55246582 71.43685127 -80.54334074 67.62370003 -80.53515625 63.81054688 C-80.51314111 54.47781243 -80.478634 45.14517197 -80.4375 35.8125 C-79.7775 35.8125 -79.1175 35.8125 -78.4375 35.8125 C-78.334375 34.348125 -78.23125 32.88375 -78.125 31.375 C-76.70444185 19.88139318 -72.63826721 10.48817131 -63.9375 2.875 C-46.16551803 -9.21982106 -18.7621163 -10.99848197 0 0 Z " fill="#FCFCFC" transform="translate(686.4375,232.1875)"/>
<path d="M0 0 C9.20238087 6.80175977 12.2608 14.04320002 15 25 C15.1632133 29.41413009 15.21503171 33.83289754 15.1953125 38.25 C15.18886719 40.79589844 15.18242188 43.34179688 15.17578125 45.96484375 C15.16740234 47.29064453 15.16740234 47.29064453 15.125 54 C15.11597656 56.68253906 15.10695313 59.36507812 15.09765625 62.12890625 C15.07408405 68.75269397 15.04117639 75.37630212 15 82 C14.34 82 13.68 82 13 82 C12.67 84.97 12.34 87.94 12 91 C11.34 92.65 10.68 94.3 10 96 C9.34 96 8.68 96 8 96 C7.34 97.65 6.68 99.3 6 101 C-8.02029531 113.01739598 -21.33612009 114.0626839 -39 113 C-51.90132631 109.52656599 -60.1631277 102.39478716 -67 91 C-70.89194595 78.0388643 -70.47687704 65.48291032 -70.4375 52.0625 C-70.45748047 49.65001953 -70.47746094 47.23753906 -70.49804688 44.75195312 C-70.4936694 28.85734624 -70.41878172 15.16755429 -59 3 C-41.50062114 -10.12453414 -19.03923445 -10.84513355 0 0 Z " fill="#FBFBFB" transform="translate(987,278)"/>
<path d="M0 0 C9.57 0 19.14 0 29 0 C29.33 19.47 29.66 38.94 30 59 C32.29103787 53.84516479 34.50839466 48.65275414 36.5 43.375 C39 37 39 37 43 30 C43.66 28.02 44.32 26.04 45 24 C45.66 24 46.32 24 47 24 C47.66 21.03 48.32 18.06 49 15 C51.44006488 9.81486212 53.81857262 4.77214106 57 0 C66.24 0 75.48 0 85 0 C85 38.28 85 76.56 85 116 C75.43 116 65.86 116 56 116 C56 96.53 56 77.06 56 57 C55.34 57 54.68 57 54 57 C53.01 59.97 52.02 62.94 51 66 C49.68 68.31 48.36 70.62 47 73 C45.6592129 76.33034215 44.32640046 79.66390187 43 83 C41.33333333 86.33333333 39.66666667 89.66666667 38 93 C37.01 95.64 36.02 98.28 35 101 C32.69026714 106.01094587 30.36011558 111.01258595 28 116 C18.76 116 9.52 116 0 116 C0 77.72 0 39.44 0 0 Z " fill="#FAFAFA" transform="translate(816,273)"/>
<path d="M0 0 C10.89 0 21.78 0 33 0 C33 14.19 33 28.38 33 43 C39.27 43 45.54 43 52 43 C52 28.81 52 14.62 52 0 C62.89 0 73.78 0 85 0 C85 38.28 85 76.56 85 116 C74.11 116 63.22 116 52 116 C52 99.5 52 83 52 66 C45.73 66 39.46 66 33 66 C33 82.5 33 99 33 116 C22.11 116 11.22 116 0 116 C0 77.72 0 39.44 0 0 Z " fill="#FAFBFA" transform="translate(1220,273)"/>
<path d="M0 0 C9.24 0 18.48 0 28 0 C28.33 19.8 28.66 39.6 29 60 C30.32 56.7 31.64 53.4 33 50 C33.804375 48.411875 34.60875 46.82375 35.4375 45.1875 C38 40 38 40 40.125 34.375 C50.04081633 8.93877551 50.04081633 8.93877551 56 0 C65.57 0 75.14 0 85 0 C85 38.28 85 76.56 85 116 C75.43 116 65.86 116 56 116 C56 95.54 56 75.08 56 54 C55.34 54 54.68 54 54 54 C53.67 55.65 53.34 57.3 53 59 C50.46717799 64.71619761 47.88755658 70.39500387 45.25 76.0625 C39.13718651 89.2501255 33.39848299 102.50379253 28 116 C18.76 116 9.52 116 0 116 C0 77.72 0 39.44 0 0 Z " fill="#FBFBFB" transform="translate(1118,273)"/>
<path d="M0 0 C10.56 0 21.12 0 32 0 C32 14.19 32 28.38 32 43 C38.27 43 44.54 43 51 43 C51 28.81 51 14.62 51 0 C61.89 0 72.78 0 84 0 C84 38.28 84 76.56 84 116 C73.11 116 62.22 116 51 116 C51 99.5 51 83 51 66 C44.73 66 38.46 66 32 66 C32 82.5 32 99 32 116 C21.44 116 10.88 116 0 116 C0 77.72 0 39.44 0 0 Z " fill="#FEFEFE" transform="translate(1581,273)"/>
<path d="M0 0 C9.63231176 7.22423382 13.65551604 13.41676337 16 25 C16.29655781 30.40305391 16.43894112 35.8155069 16.4765625 41.2265625 C16.5075 44.36285156 16.5384375 47.49914062 16.5703125 50.73046875 C16.58835937 53.99566406 16.60640625 57.26085937 16.625 60.625 C16.67629661 67.07554869 16.7308785 73.52607226 16.7890625 79.9765625 C16.80662598 82.83393066 16.82418945 85.69129883 16.84228516 88.63525391 C17.00213023 97.11298129 17.44612483 105.53965406 18 114 C8.43 114 -1.14 114 -11 114 C-13 108 -13 108 -13 100 C-13.66 100 -14.32 100 -15 100 C-15.66 101.65 -16.32 103.3 -17 105 C-21.20255431 110.33401124 -23.83196146 112.91598073 -30 116 C-39.82311946 116.67745651 -46.7101354 116.5265764 -55 111 C-63.22559169 103.17242081 -65.80059009 96.21548482 -66.5 84.9375 C-65.7440529 72.93683976 -61.05634532 64.64189078 -52.1875 56.5 C-42.61077487 50.03859509 -28.00327159 41 -16 41 C-16.75 27.625 -16.75 27.625 -19 22 C-22 20 -22 20 -28 20 C-34.65863931 26.65863931 -32.96007357 25.56080923 -34 37 C-43.9 37 -53.8 37 -64 37 C-64 24.10776627 -62.05509684 14.49324669 -53 5 C-37.16414722 -6.10566299 -17.81497225 -7.3583581 0 0 Z " fill="#FBFCFC" transform="translate(1547,275)"/>
<path d="M0 0 C11.70868236 11.70868236 12.12370279 20.53161072 12.28125 36.234375 C12.29994141 37.88373047 12.29994141 37.88373047 12.39453125 46.23046875 C12.43017511 49.73697424 12.46532694 53.24348477 12.5 56.75 C12.55163568 61.90826009 12.6047644 67.06647997 12.66296387 72.22467041 C12.71610342 76.93717233 12.76347629 81.64973824 12.81054688 86.36230469 C12.99122718 94.60002259 13.42419347 102.78135259 14 111 C4.43 111 -5.14 111 -15 111 C-17 103 -17 103 -17 97 C-20 100 -20 100 -26 108 C-34.92608758 113.10062147 -38.50595527 113.52470224 -49 113 C-56.33337094 110.19848751 -58.87414051 108.15103139 -64 102 C-64.99 101.01 -65.98 100.02 -67 99 C-70.95699515 87.42212531 -71.48864618 76.48565346 -67 65 C-55.9560809 50.43483134 -37.98197938 40.99699656 -20 38 C-20.375 22.625 -20.375 22.625 -26 17 C-32 17 -32 17 -35 19 C-37 26 -37 26 -38 34 C-47.9 34 -57.8 34 -68 34 C-68 19.12610527 -66.69722705 14.59630274 -58 3 C-40.81150685 -10.34032304 -18.84783199 -10.73610683 0 0 Z " fill="#FBFBFB" transform="translate(787,278)"/>
<path d="M0 0 C10.89 0 21.78 0 33 0 C33 14.19 33 28.38 33 43 C34.65 43 36.3 43 38 43 C38.19013672 42.32259766 38.19013672 42.32259766 39.15234375 38.89453125 C41.30849139 32.01582769 43.90185169 25.38694869 46.5625 18.6875 C47.53316406 16.23699219 48.50382812 13.78648437 49.50390625 11.26171875 C51.00063063 7.50702519 52.49883229 3.75291928 54 0 C65.55 0 77.1 0 89 0 C88 5 88 5 85 10 C84.401875 11.670625 83.80375 13.34125 83.1875 15.0625 C80.88500625 21.31212588 77.97642595 27.0471481 75 33 C74.01 35.97 73.02 38.94 72 42 C71.34 42 70.68 42 70 42 C69.34 44.31 68.68 46.62 68 49 C67.835 49.33 67.835 49.33 67 51 C67 58.02905163 68.84221096 60.75306952 72 67 C74.01072872 72.66286863 76.0110715 78.3294379 78 84 C79.32 86.64 80.64 89.28 82 92 C83.70346259 96.65336123 85.37044276 101.32024587 87 106 C87.99 108.64 88.98 111.28 90 114 C90 114.66 90 115.32 90 116 C78.12 116 66.24 116 54 116 C41.81512605 80.07563025 41.81512605 80.07563025 39 66 C37.02 66 35.04 66 33 66 C33 82.5 33 99 33 116 C22.11 116 11.22 116 0 116 C0 77.72 0 39.44 0 0 Z " fill="#FAFAFA" transform="translate(1018,273)"/>
<path d="M0 0 C10.89 0 21.78 0 33 0 C33 14.19 33 28.38 33 43 C34.98 43 36.96 43 39 43 C39.33 41.35 39.66 39.7 40 38 C42.47912062 31.54282224 44.99755409 25.11038642 47.5625 18.6875 C48.27341797 16.89763672 48.98433594 15.10777344 49.71679688 13.26367188 C51.47409274 8.84094738 53.23655762 4.42027734 55 0 C66.22 0 77.44 0 89 0 C87.62551324 6.87243378 84.74887657 12.76749081 81.9375 19.1875 C80.77089844 21.87648438 79.60429688 24.56546875 78.40234375 27.3359375 C75.71215424 33.3958133 72.8915612 39.34896824 70 45.3125 C65.67300654 56.40042073 70.68097192 63.89038887 74.88671875 74.4375 C75.82451172 76.79519531 76.76230469 79.15289062 77.72851562 81.58203125 C78.70498047 84.02996094 79.68144531 86.47789062 80.6875 89 C82.63041554 93.87439867 84.57190694 98.74936534 86.51171875 103.625 C87.37240967 105.78289062 88.23310059 107.94078125 89.11987305 110.1640625 C91 115 91 115 91 116 C79.12 116 67.24 116 55 116 C54.236875 113.6178125 54.236875 113.6178125 50.375 101.5625 C47.47726625 92.56470743 44.5612192 83.58746805 41.375 74.6875 C39 68 39 68 39 66 C37.02 66 35.04 66 33 66 C33 82.5 33 99 33 116 C22.11 116 11.22 116 0 116 C0 77.72 0 39.44 0 0 Z " fill="#FCFCFC" transform="translate(1682,273)"/>
<path d="M0 0 C4.96022516 2.48011258 7.91571634 5.69120676 11.828125 9.6328125 C13.34921875 11.16035156 14.8703125 12.68789063 16.4375 14.26171875 C18.025625 15.86660156 19.61375 17.47148437 21.25 19.125 C22.85359375 20.73761719 24.4571875 22.35023438 26.109375 24.01171875 C30.07741997 28.00338304 34.04073118 31.99963369 38 36 C33.72007213 40.99324918 29.49337208 45.62412096 24.8515625 50.24609375 C23.51738281 51.57705078 22.18320313 52.90800781 20.80859375 54.27929688 C20.11830078 54.96540039 20.11830078 54.96540039 16.625 58.4375 C15.22121094 59.83677734 13.81742188 61.23605469 12.37109375 62.67773438 C8.91632046 66.12075674 5.45846094 69.56068184 2 73 C-7.84577382 68.07711309 -15.84527708 57.32284095 -23 49 C-30 42 -30 42 -35 38 C-35 37.01 -35 36.02 -35 35 C-34.34 35 -33.68 35 -33 35 C-32.34 33.68 -31.68 32.36 -31 31 C-28.72716944 28.55922629 -26.39134107 26.17677732 -24.0234375 23.828125 C-22.63125 22.44238281 -21.2390625 21.05664062 -19.8046875 19.62890625 C-18.34289062 18.18386719 -16.88109375 16.73882812 -15.375 15.25 C-14.64023438 14.51974609 -14.64023438 14.51974609 -10.921875 10.82421875 C-7.28570297 7.21165823 -3.64342186 3.60524864 0 0 Z " fill="#FCFCFC" transform="translate(153,271)"/>
<path d="M0 0 C6.6 0 13.2 0 20 0 C20.33 2.31 20.66 4.62 21 7 C21.99 8.32 22.98 9.64 24 11 C24 11.66 24 12.32 24 13 C31.17210611 14.79302653 35.44145678 14.27927161 42 11 C44 8 44 8 45 0 C51.93 0 58.86 0 66 0 C66 7 66 7 65 12 C64.34 12 63.68 12 63 12 C62.67 13.65 62.34 15.3 62 17 C56.48199777 25.27700335 52.25805125 28.75968206 43 32 C30.54505392 34.49098922 20.55105317 33.03403545 10 26 C5 20 5 20 5 18 C4.34 18 3.68 18 3 18 C0.03321518 11.0775021 -0.2718985 7.34125955 0 0 Z " fill="#F7F7F7" transform="translate(826,228)"/>
<path d="M0 0 C5 4 5 4 6 10 C6.26303515 19.49796018 6.23145201 28.99879213 6.25 38.5 C6.270625 41.14128906 6.29125 43.78257812 6.3125 46.50390625 C6.31765625 49.02917969 6.3228125 51.55445313 6.328125 54.15625 C6.3374707 56.47462891 6.34681641 58.79300781 6.35644531 61.18164062 C6.00307725 66.94976922 5.22885883 70.77114117 1 75 C-1.97 75 -4.94 75 -8 75 C-17.04516142 65.95483858 -13.22837907 49.62461666 -13.25 37.625 C-13.270625 34.77101563 -13.29125 31.91703125 -13.3125 28.9765625 C-13.31765625 26.2540625 -13.3228125 23.5315625 -13.328125 20.7265625 C-13.3374707 18.21627441 -13.34681641 15.70598633 -13.35644531 13.11962891 C-13 7 -13 7 -10 2 C-7 0 -7 0 0 0 Z " fill="#0A0A0A" transform="translate(963,293)"/>
<path d="M0 0 C9 0 9 0 17 3 C23.47034348 10.76441218 24.30834329 14.91146941 24.375 24.75 C24.40335938 26.64234375 24.43171875 28.5346875 24.4609375 30.484375 C24 36 24 36 20 45 C13.75 50 13.75 50 0 50 C0 33.5 0 17 0 0 Z " fill="#050505" transform="translate(1410,314)"/>
<path d="M0 0 C6.1875 0.375 6.1875 0.375 11.1875 4.375 C13.4602116 8.92042321 12.40851507 15.72654715 12.4375 20.625 C12.46328125 23.22890625 12.4890625 25.8328125 12.515625 28.515625 C12.1875 35.375 12.1875 35.375 9.1875 41.375 C4.1875 44.375 4.1875 44.375 -3.8125 44.375 C-8.8125 40.375 -8.8125 40.375 -10.8125 37.375 C-11.03559318 32.42059291 -11.11790836 27.45942233 -11.125 22.5 C-11.13337891 21.15035156 -11.13337891 21.15035156 -11.17578125 14.3203125 C-10.69543945 5.13700361 -9.34321269 0.60278792 0 0 Z " fill="#E9E9E9" transform="translate(438.8125,367.625)"/>
<path d="M0 0 C5.5 0.75 5.5 0.75 11.5 5.75 C12.26171875 13.02734375 12.26171875 13.02734375 12.1875 21.6875 C12.18943359 23.11513672 12.18943359 23.11513672 12.19921875 30.33984375 C11.5 37.75 11.5 37.75 6.5 43.75 C3.5 44.75 3.5 44.75 -4.5 44.75 C-6.15 43.1 -7.8 41.45 -9.5 39.75 C-9.5 39.09 -9.5 38.43 -9.5 37.75 C-10.16 37.75 -10.82 37.75 -11.5 37.75 C-11.66206914 32.89692957 -11.77840965 28.04231507 -11.875 23.1875 C-11.94460938 20.48433594 -12.01421875 17.78117187 -12.0859375 14.99609375 C-11.36838125 6.12231485 -9.39383484 1.28097748 0 0 Z " fill="#EEEEEE" transform="translate(466.5,367.25)"/>
<path d="M0 0 C5 4 5 4 6 6 C6.15232307 10.93585336 6.2218759 15.8743769 6.25 20.8125 C6.27578125 23.52082031 6.3015625 26.22914063 6.328125 29.01953125 C6 36 6 36 3 41 C-2 44 -2 44 -10 44 C-15 40 -15 40 -17 35 C-17.21747775 30.71258156 -17.3052566 26.41792453 -17.3125 22.125 C-17.32925781 19.83820313 -17.34601563 17.55140625 -17.36328125 15.1953125 C-17 9 -17 9 -14 2 C-9.38460442 -1.07693039 -5.41932314 -0.36128821 0 0 Z " fill="#EFF0EF" transform="translate(500,368)"/>
<path d="M0 0 C5.5 0.6875 5.5 0.6875 10.5 5.6875 C12.57890807 9.84531614 11.71883117 15.41801936 11.75 19.9375 C11.77578125 22.17015625 11.8015625 24.4028125 11.828125 26.703125 C11.5 32.6875 11.5 32.6875 8.5 38.6875 C4.5 41.6875 4.5 41.6875 -5.5 41.6875 C-11.97018414 35.21731586 -10.75441776 29.90475478 -10.875 20.875 C-10.92398437 18.37292969 -10.97296875 15.87085938 -11.0234375 13.29296875 C-10.3605776 4.92807252 -8.71886515 1.08985814 0 0 Z " fill="#EAEAEA" transform="translate(494.5,211.3125)"/>
<path d="M0 0 C10 0 10 0 16 5 C16.7265625 11.875 16.7265625 11.875 16.625 20 C16.61726563 22.68125 16.60953125 25.3625 16.6015625 28.125 C16 35 16 35 12 40 C10 41 10 41 0 41 C-6.57714481 34.42285519 -5.25728809 28.79747389 -5.375 19.625 C-5.42398437 17.01851562 -5.47296875 14.41203125 -5.5234375 11.7265625 C-5 5 -5 5 0 0 Z " fill="#F0F0F0" transform="translate(463,212)"/>
<path d="M0 0 C10 0 10 0 16 5 C16.69140625 11.65625 16.69140625 11.65625 16.5625 19.5 C16.54316406 22.0884375 16.52382813 24.676875 16.50390625 27.34375 C16 34 16 34 13 39 C9 41 9 41 0 41 C-6.6264075 34.3735925 -5.25869665 29.61254493 -5.375 20.1875 C-5.42398437 17.47917969 -5.47296875 14.77085937 -5.5234375 11.98046875 C-5 5 -5 5 0 0 Z " fill="#EFF0F0" transform="translate(437,212)"/>
<path d="M0 0 C62.04 0 124.08 0 188 0 C188 6.27 188 12.54 188 19 C129.59 19 71.18 19 11 19 C11 18.67 11 18.34 11 18 C68.75 18 126.5 18 186 18 C186 12.72 186 7.44 186 2 C124.29 2.33 62.58 2.66 -1 3 C-0.67 2.01 -0.34 1.02 0 0 Z " fill="#D8D9D9" transform="translate(393,133)"/>
<path d="M0 0 C0.16166179 4.8947599 0.27822266 9.79102748 0.375 14.6875 C0.44460938 17.41386719 0.51421875 20.14023437 0.5859375 22.94921875 C0.39257812 25.27597656 0.19921875 27.60273438 0 30 C-6 35 -6 35 -13 36 C-18.92222222 30.07777778 -18.92222222 30.07777778 -19.4375 22.9375 C-18.95597529 15.30189391 -17.98067703 12.66766697 -13 7 C-4.06153846 0 -4.06153846 0 0 0 Z " fill="#080808" transform="translate(1531,333)"/>
<path d="M0 0 C0.21578183 4.87307305 0.37107457 9.74885593 0.5 14.625 C0.5928125 17.33976562 0.685625 20.05453125 0.78125 22.8515625 C0.5234375 25.21054687 0.265625 27.56953125 0 30 C-2.64 31.98 -5.28 33.96 -8 36 C-10.31 35.67 -12.62 35.34 -15 35 C-19.61946853 28.07079721 -19.51307448 25.12367926 -19 17 C-15.86628357 9.16570891 -9.36957715 0 0 0 Z " fill="#090909" transform="translate(767,333)"/>
<path d="M0 0 C0.969375 0.020625 0.969375 0.020625 5.875 0.125 C5.545 0.29 5.545 0.29 3.875 1.125 C3.545 2.775 3.215 4.425 2.875 6.125 C1.225 6.455 -0.425 6.785 -2.125 7.125 C-2.23253448 11.8953492 -2.3103694 16.66637665 -2.375 21.4375 C-2.39820313 22.76587891 -2.39820313 22.76587891 -2.515625 29.48828125 C-2.38671875 31.67839844 -2.2578125 33.86851562 -2.125 36.125 C-0.805 37.115 0.515 38.105 1.875 39.125 C1.545 39.785 1.215 40.445 0.875 41.125 C1.865 41.455 2.855 41.785 3.875 42.125 C3.875 42.785 3.875 43.445 3.875 44.125 C-4.125 44.125 -4.125 44.125 -9.125 40.125 C-12.65321974 34.83267039 -11.42863268 28.45121472 -11.4375 22.25 C-11.44587891 20.90035156 -11.44587891 20.90035156 -11.48828125 14.0703125 C-10.99421059 4.62453154 -9.60854542 0.19609276 0 0 Z " fill="#EDEDED" transform="translate(439.125,367.875)"/>
<path d="M0 0 C58.41 0 116.82 0 177 0 C177 0.33 177 0.66 177 1 C169.93770492 2.41245902 163.09535337 2.15071582 155.89038086 2.17358398 C155.06417488 2.17692749 155.06417488 2.17692749 150.8830719 2.19384766 C147.29215675 2.2079045 143.70123262 2.21979653 140.11030388 2.22979546 C134.43373721 2.24618355 128.75723736 2.26941902 123.08070374 2.29469299 C106.94014806 2.36554183 90.7995656 2.42569971 74.65893555 2.47680664 C64.79116286 2.50853152 54.92346767 2.54978669 45.05575752 2.59700203 C41.2883194 2.61305677 37.52086343 2.62536217 33.7534008 2.63390923 C28.49559492 2.64601232 23.23797265 2.67014018 17.98022461 2.69702148 C14.98415634 2.70732895 11.98808807 2.71763641 8.90122986 2.72825623 C2 3 2 3 -2 5 C-1.34 3.35 -0.68 1.7 0 0 Z " fill="#292928" transform="translate(404,152)"/>
<path d="M0 0 C114.51 0 229.02 0 347 0 C346.67 1.65 346.34 3.3 346 5 C345.34 3.68 344.68 2.36 344 1 C230.48 1 116.96 1 0 1 C0 0.67 0 0.34 0 0 Z " fill="#F5F6F6" transform="translate(8,134)"/>
<path d="M0 0 C1.98 0 3.96 0 6 0 C6 14.19 6 28.38 6 43 C3.69 43 1.38 43 -1 43 C-1.33 32.77 -1.66 22.54 -2 12 C-4.64 11.67 -7.28 11.34 -10 11 C-10 9.35 -10 7.7 -10 6 C-7.69 5.34 -5.38 4.68 -3 4 C-2.01 2.68 -1.02 1.36 0 0 Z " fill="#F8F8F8" transform="translate(415,368)"/>
<path d="M0 0 C1.65 0 3.3 0 5 0 C5 13.53 5 27.06 5 41 C2.69 41 0.38 41 -2 41 C-2 31.1 -2 21.2 -2 11 C-4.64 11 -7.28 11 -10 11 C-10 9.35 -10 7.7 -10 6 C-7.36 5.34 -4.72 4.68 -2 4 C-1.34 2.68 -0.68 1.36 0 0 Z " fill="#FAFAFA" transform="translate(420,212)"/>
<path d="M0 0 C10.89 0 21.78 0 33 0 C33 38.28 33 76.56 33 116 C32.67 116 32.34 116 32 116 C31.67 87.62 31.34 59.24 31 30 C30.67 30 30.34 30 30 30 C30 20.76 30 11.52 30 2 C25.08463542 2.03255208 20.16927083 2.06510417 15.25390625 2.09765625 C10 2 10 2 1 1 C1 14.86 1 28.72 1 43 C0.67 43 0.34 43 0 43 C0 28.81 0 14.62 0 0 Z " fill="#C7C7C6" transform="translate(1632,273)"/>
<path d="M0 0 C1.65 0 3.3 0 5 0 C7 2 7 2 7.265625 8.03125 C7.26046875 10.4959375 7.2553125 12.960625 7.25 15.5 C7.25515625 17.9646875 7.2603125 20.429375 7.265625 22.96875 C7 29 7 29 5 31 C3.35 31 1.7 31 0 31 C-1 30 -1 30 -1.1328125 23.59375 C-1.13023437 20.9228125 -1.12765625 18.251875 -1.125 15.5 C-1.12757813 12.8290625 -1.13015625 10.158125 -1.1328125 7.40625 C-1 1 -1 1 0 0 Z " fill="#171717" transform="translate(492,374)"/>
<path d="M0 0 C5 1 5 1 6 2 C6.12675825 6.47780891 6.17584048 10.95791248 6.1875 15.4375 C6.20167969 17.91121094 6.21585937 20.38492187 6.23046875 22.93359375 C6 29 6 29 4 31 C-1 30 -1 30 -2 29 C-2.12687798 24.70975397 -2.17584933 20.41710593 -2.1875 16.125 C-2.20167969 13.75570313 -2.21585937 11.38640625 -2.23046875 8.9453125 C-2 3 -2 3 0 0 Z " fill="#101111" transform="translate(465,374)"/>
<path d="M0 0 C1.65 0 3.3 0 5 0 C6 1 6 1 6.1328125 7.40625 C6.13023437 10.0771875 6.12765625 12.748125 6.125 15.5 C6.12757813 18.1709375 6.13015625 20.841875 6.1328125 23.59375 C6 30 6 30 5 31 C3.35 31 1.7 31 0 31 C-1 30 -1 30 -1.1328125 23.59375 C-1.13023437 20.9228125 -1.12765625 18.251875 -1.125 15.5 C-1.12757813 12.8290625 -1.13015625 10.158125 -1.1328125 7.40625 C-1 1 -1 1 0 0 Z " fill="#070807" transform="translate(437,374)"/>
<path d="M0 0 C4 1 4 1 5 2 C5.07352445 6.52028342 5.08352713 11.04166756 5.0625 15.5625 C5.05347656 18.05941406 5.04445313 20.55632812 5.03515625 23.12890625 C5.02355469 25.06636719 5.01195312 27.00382812 5 29 C3.35 29.33 1.7 29.66 0 30 C-2 28 -2 28 -2.265625 22.1875 C-2.26046875 19.815625 -2.2553125 17.44375 -2.25 15 C-2.25515625 12.628125 -2.2603125 10.25625 -2.265625 7.8125 C-2 2 -2 2 0 0 Z " fill="#0C0C0C" transform="translate(467,217)"/>
<path d="M0 0 C4 1 4 1 5 2 C5.12671013 6.31109117 5.17583711 10.62456289 5.1875 14.9375 C5.20167969 17.31839844 5.21585937 19.69929688 5.23046875 22.15234375 C5 28 5 28 3 30 C1.35 29.67 -0.3 29.34 -2 29 C-2.05371331 24.54179553 -2.0926592 20.08341074 -2.125 15.625 C-2.13660156 14.38363281 -2.13660156 14.38363281 -2.1953125 8.1015625 C-2 2 -2 2 0 0 Z " fill="#0C0C0C" transform="translate(441,217)"/>
<path d="M0 0 C0.33 0 0.66 0 1 0 C0.67 28.38 0.34 56.76 0 86 C0.66 86 1.32 86 2 86 C2.33 90.95 2.66 95.9 3 101 C-2.65226784 95.34773216 -2.05535232 84.56659327 -2.34057617 77.18041992 C-2.33272095 75.53867798 -2.33272095 75.53867798 -2.29296875 67.23046875 C-2.28872391 65.47317947 -2.28447906 63.7158902 -2.28010559 61.90534973 C-2.26341019 56.33257253 -2.22577282 50.76016658 -2.1875 45.1875 C-2.17244145 41.39258337 -2.1587551 37.59766104 -2.14648438 33.80273438 C-2.11353635 24.53503709 -2.0618154 15.26755483 -2 6 C-1.34 6 -0.68 6 0 6 C0 4.02 0 2.04 0 0 Z " fill="#C5C5C5" transform="translate(608,262)"/>
<path d="M0 0 C1.65 0 3.3 0 5 0 C6 1 6 1 6.09765625 7.00390625 C6.08605469 9.49824219 6.07445312 11.99257812 6.0625 14.5625 C6.05347656 17.05941406 6.04445313 19.55632812 6.03515625 22.12890625 C6.02355469 24.06636719 6.01195312 26.00382812 6 28 C4.35 28.33 2.7 28.66 1 29 C-1 27 -1 27 -1.23046875 21.15234375 C-1.22337891 19.96189453 -1.22337891 19.96189453 -1.1875 13.9375 C-1.18105469 11.55402344 -1.17460937 9.17054688 -1.16796875 6.71484375 C-1 1 -1 1 0 0 Z " fill="#0C0C0C" transform="translate(492,218)"/>
<path d="M0 0 C0 0.66 0 1.32 0 2 C0.66 2 1.32 2 2 2 C2 51.5 2 101 2 152 C1.67 152 1.34 152 1 152 C1 102.83 1 53.66 1 3 C-2.3 2.67 -5.6 2.34 -9 2 C-6 0 -6 0 0 0 Z " fill="#F3F3F3" transform="translate(561,231)"/>
<path d="M0 0 C1.65 0 3.3 0 5 0 C5 20.79 5 41.58 5 63 C4.34 63 3.68 63 3 63 C3 43.53 3 24.06 3 4 C2.34 4 1.68 4 1 4 C0.34 5.32 -0.32 6.64 -1 8 C-2 4 -2 4 0 0 Z " fill="#F8F8F7" transform="translate(869,326)"/>
<path d="M0 0 C11.55 0 23.1 0 35 0 C35 8.58 35 17.16 35 26 C34.67 26 34.34 26 34 26 C34 18.08 34 10.16 34 2 C23.44 2 12.88 2 2 2 C2 8.6 2 15.2 2 22 C1.34 22 0.68 22 0 22 C0 14.74 0 7.48 0 0 Z " fill="#E6E7E6" transform="translate(669,329)"/>
<path d="M0 0 C0.66 0 1.32 0 2 0 C2.16711407 8.93749169 2.33361625 17.87499468 2.5 26.8125 C2.54769531 29.36291016 2.59539062 31.91332031 2.64453125 34.54101562 C2.68964844 36.96767578 2.73476562 39.39433594 2.78125 41.89453125 C2.82314453 44.14112549 2.86503906 46.38771973 2.90820312 48.70239258 C3.05024275 56.8995145 3.05024275 56.8995145 1 61 C0.67 61 0.34 61 0 61 C0 40.87 0 20.74 0 0 Z " fill="#444545" transform="translate(1146,273)"/>
<path d="M0 0 C1.41718399 5.66873595 0.58996497 9.82007006 -2 15 C-1.34 15 -0.68 15 0 15 C0.2475 16.65 0.495 18.3 0.75 20 C2 26 2 26 6 34 C6.66 36.97 7.32 39.94 8 43 C4.23256714 37.97675618 2.26848212 32.80576421 -0.125 27 C-1.01445312 24.855 -1.90390625 22.71 -2.8203125 20.5 C-5 15 -5 15 -6 11 C-4.09987061 7.2805978 -2.10449528 3.6077062 0 0 Z " fill="#E7E7E6" transform="translate(370,177)"/>
<path d="M0 0 C0.66 0 1.32 0 2 0 C2 20.46 2 40.92 2 62 C1.67 62 1.34 62 1 62 C0.67 44.18 0.34 26.36 0 8 C-1.32 9.32 -2.64 10.64 -4 12 C-2.66666667 8 -1.33333333 4 0 0 Z " fill="#595959" transform="translate(1172,327)"/>
<path d="M0 0 C2.93276875 4.39915312 4.35238033 9.15022865 6.125 14.125 C6.84945313 16.12820313 7.57390625 18.13140625 8.3203125 20.1953125 C10 26 10 26 10 35 C7.26401717 30.89602575 6.06043856 26.61550967 4.5 21.9375 C3.8915625 20.13152344 3.283125 18.32554687 2.65625 16.46484375 C1.09769922 11.32236135 -0.12988162 6.30110162 -1 1 C-0.67 0.67 -0.34 0.34 0 0 Z " fill="#C1C1C1" transform="translate(1063,354)"/>
<path d="M0 0 C23.76 0 47.52 0 72 0 C72 0.33 72 0.66 72 1 C69.93073242 1.01981934 67.86146484 1.03963867 65.72949219 1.06005859 C56.40286073 1.15499281 47.07646305 1.26480154 37.75 1.375 C34.49253906 1.4059375 31.23507812 1.436875 27.87890625 1.46875 C26.32880859 1.48808594 26.32880859 1.48808594 18.484375 1.5859375 C15.61459961 1.6173584 12.74482422 1.6487793 9.78808594 1.68115234 C3 2 3 2 -1 4 C-0.67 2.68 -0.34 1.36 0 0 Z " fill="#040404" transform="translate(403,153)"/>
<path d="M0 0 C0.66 0 1.32 0 2 0 C2 19.47 2 38.94 2 59 C1.67 59 1.34 59 1 59 C0.67 41.51 0.34 24.02 0 6 C-0.66 6 -1.32 6 -2 6 C-1.34 4.02 -0.68 2.04 0 0 Z " fill="#2B2B2B" transform="translate(870,330)"/>
<path d="M0 0 C0.33 0 0.66 0 1 0 C1 17.82 1 35.64 1 54 C1.495 53.835 1.495 53.835 4 53 C2 59 2 59 0 60 C0 40.2 0 20.4 0 0 Z " fill="#4C4C4C" transform="translate(845,273)"/>
<path d="M0 0 C0.66 0 1.32 0 2 0 C2 20.46 2 40.92 2 62 C1.67 62 1.34 62 1 62 C1 42.53 1 23.06 1 3 C0.34 3 -0.32 3 -1 3 C-0.67 2.01 -0.34 1.02 0 0 Z " fill="#A2A2A0" transform="translate(871,327)"/>
<path d="M0 0 C1.65 0 3.3 0 5 0 C5 13.53 5 27.06 5 41 C2.69 41 0.38 41 -2 41 C-2 40.67 -2 40.34 -2 40 C-0.02 40 1.96 40 4 40 C4 27.13 4 14.26 4 1 C1.69 2.65 -0.62 4.3 -3 6 C-4.32 5.67 -5.64 5.34 -7 5 C-5.35 4.67 -3.7 4.34 -2 4 C-1.34 2.68 -0.68 1.36 0 0 Z " fill="#CFD0CF" transform="translate(420,212)"/>
<path d="M0 0 C0 0.66 0 1.32 0 2 C0.66 2 1.32 2 2 2 C2 16.19 2 30.38 2 45 C1.67 45 1.34 45 1 45 C1 31.14 1 17.28 1 3 C-2.3 2.67 -5.6 2.34 -9 2 C-6 0 -6 0 0 0 Z " fill="#F2F2F2" transform="translate(561,231)"/>
<path d="M0 0 C2.26746094 0.07863281 4.53492188 0.15726562 6.87109375 0.23828125 C12.5625 0.6875 12.5625 0.6875 15.5625 2.6875 C11.31263718 2.7413715 7.06258175 2.78023257 2.8125 2.8125 C0.44578125 2.83570313 -1.9209375 2.85890625 -4.359375 2.8828125 C-10.4375 2.6875 -10.4375 2.6875 -14.4375 0.6875 C-10.27233636 -1.39508182 -4.4977376 -0.17112346 0 0 Z " fill="#F7F7F7" transform="translate(653.4375,388.3125)"/>
<path d="M0 0 C6.93 0 13.86 0 21 0 C21 7 21 7 20 12 C19.67 12 19.34 12 19 12 C19 8.37 19 4.74 19 1 C13.06 1 7.12 1 1 1 C1 3.97 1 6.94 1 10 C0.67 10.495 0.67 10.495 -1 13 C-1.99 12.67 -2.98 12.34 -4 12 C-3.01 10.68 -2.02 9.36 -1 8 C-0.67 5.36 -0.34 2.72 0 0 Z " fill="#949494" transform="translate(871,228)"/>
<path d="M0 0 C0.33 0.99 0.66 1.98 1 3 C0.01 3.99 -0.98 4.98 -2 6 C-2.66 6 -3.32 6 -4 6 C-4.66 7.32 -5.32 8.64 -6 10 C-9.2929337 13.37324916 -12.62366134 16.71023413 -16 20 C-16.99 19.67 -17.98 19.34 -19 19 C-12.73 12.73 -6.46 6.46 0 0 Z " fill="#D0D0D0" transform="translate(146,278)"/>
<path d="M0 0 C1 4 1 4 -1 8 C-3.36430113 13.31967753 -5.70683174 18.64927405 -8 24 C-8.66 23.67 -9.32 23.34 -10 23 C-7.27261482 14.81784447 -3.93504214 7.64734605 0 0 Z " fill="#C6C6C6" transform="translate(1173,275)"/>
<path d="M0 0 C0.33 0 0.66 0 1 0 C1 3.3 1 6.6 1 10 C0.01 10 -0.98 10 -2 10 C-2.33 14.62 -2.66 19.24 -3 24 C-3.33 24 -3.66 24 -4 24 C-4.29254516 15.71122048 -3.56464449 8.89910501 -1 1 C-0.67 0.67 -0.34 0.34 0 0 Z " fill="#D2D2D1" transform="translate(721,342)"/>
<path d="M0 0 C1.41718399 5.66873595 0.58996497 9.82007006 -2 15 C-1.34 15 -0.68 15 0 15 C-0.33 15.66 -0.66 16.32 -1 17 C-1.99 16.01 -2.98 15.02 -4 14 C-4 7 -4 7 0 0 Z " fill="#EEEEED" transform="translate(370,177)"/>
<path d="M0 0 C0 0.66 0 1.32 0 2 C5.28 1.34 10.56 0.68 16 0 C16 0.66 16 1.32 16 2 C17.32 2.33 18.64 2.66 20 3 C16.41683021 3.0539273 12.83343053 3.09275834 9.25 3.125 C7.25453125 3.14820313 5.2590625 3.17140625 3.203125 3.1953125 C-2 3 -2 3 -6 1 C-3 0 -3 0 0 0 Z " fill="#F0F0EF" transform="translate(950,388)"/>
<path d="M0 0 C-6.49457472 3.24728736 -12.78398196 4 -20 4 C-19.67 3.01 -19.34 2.02 -19 1 C-12.61722847 -0.27655431 -6.49464979 -0.06069766 0 0 Z " fill="#E0E0E0" transform="translate(287,430)"/>
<path d="M0 0 C0.66 0 1.32 0 2 0 C0 4 0 4 -1 5 C-1.23823029 9.68519571 -1.41531357 14.37356103 -1.5625 19.0625 C-1.64628906 21.65222656 -1.73007812 24.24195313 -1.81640625 26.91015625 C-1.87699219 28.91980469 -1.93757813 30.92945313 -2 33 C-2.33 33 -2.66 33 -3 33 C-3.08075728 28.25027532 -3.13907599 23.50016435 -3.1875 18.75 C-3.22230469 16.10484375 -3.25710938 13.4596875 -3.29296875 10.734375 C-3 4 -3 4 0 0 Z " fill="#F4F4F4" transform="translate(461,213)"/>
<path d="M0 0 C0 0.66 0 1.32 0 2 C-0.66 2.33 -0.66 2.33 -4 4 C-6.33623365 6.6641261 -8.66966777 9.33071035 -11 12 C-11.99 12.33 -12.98 12.66 -14 13 C-11.88784911 7.71962277 -6.42551075 0 0 0 Z " fill="#D4D4D4" transform="translate(937,276)"/>
<path d="M0 0 C0.33 0 0.66 0 1 0 C1 3.96 1 7.92 1 12 C0.34 12 -0.32 12 -1 12 C-1.33 15.3 -1.66 18.6 -2 22 C-2.33 22 -2.66 22 -3 22 C-3 6 -3 6 0 0 Z " fill="#E7E7E6" transform="translate(256,266)"/>
<path d="M0 0 C1.65 0 3.3 0 5 0 C5 6.27 5 12.54 5 19 C4.67 19 4.34 19 4 19 C4 13.06 4 7.12 4 1 C3.67 1.165 3.67 1.165 2 2 C1.34 3.98 0.68 5.96 0 8 C-0.66 6.68 -1.32 5.36 -2 4 C-1.34 2.68 -0.68 1.36 0 0 Z " fill="#F9F9F9" transform="translate(869,326)"/>
<path d="M0 0 C1.32 0.33 2.64 0.66 4 1 C4 2.98 4 4.96 4 7 C4.515625 8.69125 5.03125 10.3825 5.5625 12.125 C7 17 7 17 6 21 C0 2.25 0 2.25 0 0 Z " fill="#E6E6E6" transform="translate(254,321)"/>
<path d="M0 0 C-6.13440257 4.08960171 -11.68474345 3.06650233 -19 3 C-19 2.67 -19 2.34 -19 2 C-10 0 -10 0 0 0 Z " fill="#E8E8E8" transform="translate(757,388)"/>
<path d="M0 0 C0.33 0 0.66 0 1 0 C1 1.65 1 3.3 1 5 C0.67 5.165 0.67 5.165 -1 6 C-1.66 7.98 -2.32 9.96 -3 12 C-3.66 12.33 -3.66 12.33 -7 14 C-5 7 -5 7 0 0 Z " fill="#CFCFCF" transform="translate(1492,282)"/>
<path d="M0 0 C-0.33 0.99 -0.66 1.98 -1 3 C-4.3 3 -7.6 3 -11 3 C-11.66 3.33 -11.66 3.33 -15 5 C-16.32 4.67 -17.64 4.34 -19 4 C-12.00847045 1.20338818 -7.6797624 0 0 0 Z " fill="#CACACA" transform="translate(757,271)"/>
<path d="M0 0 C8.91 0 17.82 0 27 0 C26.67 1.65 26.34 3.3 26 5 C25.34 3.68 24.68 2.36 24 1 C16.08 1 8.16 1 0 1 C0 0.67 0 0.34 0 0 Z " fill="#F5F5F5" transform="translate(328,134)"/>
<path d="M0 0 C2 3 2 3 4 9 C0.04 9 -3.92 9 -8 9 C-8 8.67 -8 8.34 -8 8 C-5.69 7.34 -3.38 6.68 -1 6 C-1 4.35 -1 2.7 -1 1 C-0.67 0.67 -0.34 0.34 0 0 Z " fill="#F1F1F1" transform="translate(1769,380)"/>
<path d="M0 0 C0.66 0.99 1.32 1.98 2 3 C0.35 5.64 -1.3 8.28 -3 11 C-3.66 11 -4.32 11 -5 11 C-5 11.99 -5 12.98 -5 14 C-5.66 14 -6.32 14 -7 14 C-5.02282207 9.05705519 -2.62290383 4.62459359 0 0 Z " fill="#DCDDDC" transform="translate(353,369)"/>
<path d="M0 0 C-6.24238468 3.12119234 -13.09949445 5.72512639 -20 4 C-12.2027141 0.65830604 -8.51776486 0 0 0 Z " fill="#CFCFCF" transform="translate(957,271)"/>
<path d="M0 0 C-0.66 1.32 -1.32 2.64 -2 4 C-5.3 4 -8.6 4 -12 4 C-12.33 3.34 -12.66 2.68 -13 2 C-3.375 0 -3.375 0 0 0 Z " fill="#EEEFEE" transform="translate(225,402)"/>
<path d="M0 0 C0.99 0 1.98 0 3 0 C3 0.66 3 1.32 3 2 C5.97 2.99 8.94 3.98 12 5 C12 5.99 12 6.98 12 8 C6 6 6 6 0 2 C0 1.34 0 0.68 0 0 Z " fill="#E9E9E9" transform="translate(931,381)"/>
<path d="M0 0 C1.65 0 3.3 0 5 0 C0 6 0 6 -2 7 C-2.66 9.31 -3.32 11.62 -4 14 C-4.66 14 -5.32 14 -6 14 C-4 6 -4 6 0 0 Z " fill="#D8D9D8" transform="translate(873,273)"/>
<path d="M0 0 C0.33 0 0.66 0 1 0 C1.33 5.28 1.66 10.56 2 16 C-0.31 16 -2.62 16 -5 16 C-3.68 14.35 -2.36 12.7 -1 11 C-0.25 5.1875 -0.25 5.1875 0 0 Z " fill="#E6E7E6" transform="translate(799,373)"/>
<path d="M0 0 C-0.66 1.32 -1.32 2.64 -2 4 C-2.33 4.99 -2.66 5.98 -3 7 C-4.32 7 -5.64 7 -7 7 C-8.32 7.99 -9.64 8.98 -11 10 C-11.66 9.67 -12.32 9.34 -13 9 C-2.25 0 -2.25 0 0 0 Z " fill="#E6E6E5" transform="translate(303,203)"/>
<path d="M0 0 C7.92 0 15.84 0 24 0 C24 0.33 24 0.66 24 1 C22.53046875 1.04898438 21.0609375 1.09796875 19.546875 1.1484375 C18.59039062 1.18582031 18.59039062 1.18582031 13.75 1.375 C11.84734375 1.44460937 9.9446875 1.51421875 7.984375 1.5859375 C3 2 3 2 -1 4 C-0.67 2.68 -0.34 1.36 0 0 Z " fill="#050505" transform="translate(403,153)"/>
<path d="M0 0 C0 3 0 3 -4 10 C-4.66 11.32 -5.32 12.64 -6 14 C-6 11.03 -6 8.06 -6 5 C-4.02 3.35 -2.04 1.7 0 0 Z " fill="#D8D8D8" transform="translate(867,336)"/>
<path d="M0 0 C-0.99 0.33 -1.98 0.66 -3 1 C-3.66 1.66 -4.32 2.32 -5 3 C-6.485 3.165 -6.485 3.165 -14 4 C-14.66 3.34 -15.32 2.68 -16 2 C-4.5 -1.125 -4.5 -1.125 0 0 Z " fill="#D8D8D8" transform="translate(247,398)"/>
<path d="M0 0 C4 2 4 2 11 7 C10.67 7.66 10.34 8.32 10 9 C5 7 5 7 0 1 C0 0.67 0 0.34 0 0 Z " fill="#E8E8E8" transform="translate(723,379)"/>
<path d="M0 0 C0.99 0 1.98 0 3 0 C3.33 4.95 3.66 9.9 4 15 C0.21287231 11.21287231 0.70115835 5.10843938 0 0 Z " fill="#E7E7E6" transform="translate(607,348)"/>
<path d="M0 0 C1.32 0 2.64 0 4 0 C5 4 5 4 4 12 C2 9 2 9 0 0 Z " fill="#E2E2E1" transform="translate(1058,342)"/>
<path d="M0 0 C0.66 0 1.32 0 2 0 C2 7.59 2 15.18 2 23 C1.67 23 1.34 23 1 23 C1 16.4 1 9.8 1 3 C0.34 3 -0.32 3 -1 3 C-0.67 2.01 -0.34 1.02 0 0 Z " fill="#A7A7A7" transform="translate(871,327)"/>
<path d="M0 0 C0.66 0 1.32 0 2 0 C2 5.61 2 11.22 2 17 C1.67 17 1.34 17 1 17 C0.67 13.37 0.34 9.74 0 6 C-0.66 6 -1.32 6 -2 6 C-1.34 4.02 -0.68 2.04 0 0 Z " fill="#2F2F2F" transform="translate(870,330)"/>
<path d="M0 0 C0.33 0.99 0.66 1.98 1 3 C-0.98 4.98 -2.96 6.96 -5 9 C-5.66 9.99 -6.32 10.98 -7 12 C-7.33 10.68 -7.66 9.36 -8 8 C-7.34 8 -6.68 8 -6 8 C-5.34 6.68 -4.68 5.36 -4 4 C-2.68 2.68 -1.36 1.36 0 0 Z " fill="#CECECE" transform="translate(126,298)"/>
<path d="M0 0 C1 4 1 4 -1 10 C-1.66 10.33 -1.66 10.33 -5 12 C-3 6 -3 6 0 0 Z " fill="#DFDFDE" transform="translate(322,160)"/>
<path d="M0 0 C3.3 0 6.6 0 10 0 C5.39905724 3.06729517 0.3977627 3.18743357 -5 4 C-5 3.34 -5 2.68 -5 2 C-3.35 2 -1.7 2 0 2 C0 1.34 0 0.68 0 0 Z " fill="#D8D8D8" transform="translate(232,477)"/>
<path d="M0 0 C0.99 0.66 1.98 1.32 3 2 C2.67 2.33 2.34 2.66 2 3 C-5 3 -5 3 -9 1 C-7 0 -7 0 0 0 Z " fill="#EBEBEB" transform="translate(648,388)"/>
<path d="M0 0 C3 4 3 4 4 10 C3.34 10.66 2.68 11.32 2 12 C-1.125 2.25 -1.125 2.25 0 0 Z " fill="#DADAD9" transform="translate(719,367)"/>
<path d="M0 0 C0.66 0 1.32 0 2 0 C0 4 0 4 -5 9 C-5.33 9.66 -5.66 10.32 -6 11 C-6.66 11 -7.32 11 -8 11 C-6 6 -6 6 0 0 Z " fill="#DADADA" transform="translate(1494,332)"/>
<path d="M0 0 C1.35916771 5.43667084 -0.11182151 8.80750916 -2 14 C-2.99 14.33 -3.98 14.66 -5 15 C-3.33333333 10 -1.66666667 5 0 0 Z " fill="#D1D2D1" transform="translate(1728,295)"/>
<path d="M0 0 C1 4 1 4 -1 8 C-2.32 9.32 -3.64 10.64 -5 12 C-2 3 -2 3 0 0 Z " fill="#C0C0BF" transform="translate(1173,275)"/>
<path d="M0 0 C0.33 0.66 0.66 1.32 1 2 C0.505 2.825 0.505 2.825 -2 7 C-3.98 7 -5.96 7 -8 7 C-4 3 -4 3 0 0 Z " fill="#F6F6F6" transform="translate(666,361)"/>
<path d="M0 0 C0.66 0.33 1.32 0.66 2 1 C-0.97 3.97 -3.94 6.94 -7 10 C-7.66 9.67 -8.32 9.34 -9 9 C-4 3 -4 3 0 0 Z " fill="#2B2B2B" transform="translate(760,335)"/>
<path d="M0 0 C0.66 0.99 1.32 1.98 2 3 C1.01 3.33 0.02 3.66 -1 4 C-1.33 5.65 -1.66 7.3 -2 9 C-2.66 10.32 -3.32 11.64 -4 13 C-4.66 13 -5.32 13 -6 13 C-4 7 -4 7 0 0 Z " fill="#D8D8D9" transform="translate(373,332)"/>
<path d="M0 0 C0.66 0 1.32 0 2 0 C2 1.98 2 3.96 2 6 C0.02 6.33 -1.96 6.66 -4 7 C-2.68 4.69 -1.36 2.38 0 0 Z " fill="#2E2E2E" transform="translate(768,375)"/>
<path d="M0 0 C3.31473818 3.31473818 4 6.42797213 4 11 C3.01 11 2.02 11 1 11 C0 4 0 4 0 0 Z " fill="#BFBFBF" transform="translate(1096,358)"/>
<path d="M0 0 C2 2 2 2 2 7 C0.35 7.33 -1.3 7.66 -3 8 C-1 2 -1 2 0 0 Z " fill="#F1F1F0" transform="translate(380,157)"/>
<path d="M0 0 C0.66 0.33 1.32 0.66 2 1 C0.02 3.31 -1.96 5.62 -4 8 C-4.33 8.66 -4.66 9.32 -5 10 C-5.66 10 -6.32 10 -7 10 C-5 5 -5 5 0 0 Z " fill="#C6C6C6" transform="translate(731,279)"/>
<path d="M0 0 C4 2 4 2 9 7 C5 6 5 6 0 2 C0 1.34 0 0.68 0 0 Z " fill="#EEEEEE" transform="translate(84,399)"/>
<path d="M0 0 C1.65 0.33 1.65 0.33 10 2 C9.67 2.66 9.34 3.32 9 4 C2 4 2 4 0 3 C0 2.01 0 1.02 0 0 Z " fill="#F9F9F9" transform="translate(649,364)"/>
<path d="M0 0 C0.99 0.33 1.98 0.66 3 1 C-1 5 -1 5 -6 7 C-4.02 4.69 -2.04 2.38 0 0 Z " fill="#D7D7D7" transform="translate(153,271)"/>
<path d="M0 0 C0.66 0.33 1.32 0.66 2 1 C-0.31 3.31 -2.62 5.62 -5 8 C-5.66 8 -6.32 8 -7 8 C-5 4 -5 4 0 0 Z " fill="#222222" transform="translate(1523,336)"/>
<path d="M0 0 C0.66 1.32 1.32 2.64 2 4 C-3 7 -3 7 -5 7 C-3 3 -3 3 0 0 Z " fill="#DEDEDD" transform="translate(728,334)"/>
<path d="M0 0 C0.33 0 0.66 0 1 0 C1 2.64 1 5.28 1 8 C0.34 8.33 0.34 8.33 -3 10 C-2.01 6.7 -1.02 3.4 0 0 Z " fill="#DFE0DD" transform="translate(1736,275)"/>
<path d="M0 0 C0.99 0 1.98 0 3 0 C3.33 3.63 3.66 7.26 4 11 C2 9 2 9 0 0 Z " fill="#D9D9D8" transform="translate(1734,378)"/>
<path d="M0 0 C0.99 0 1.98 0 3 0 C3.33 2.31 3.66 4.62 4 7 C3.34 7.66 2.68 8.32 2 9 C1.34 6.03 0.68 3.06 0 0 Z " fill="#F4F4F2" transform="translate(1730,364)"/>
<path d="M0 0 C0.66 0 1.32 0 2 0 C1 5 1 5 -3 9 C-2.01 6.03 -1.02 3.06 0 0 Z " fill="#383838" transform="translate(1171,330)"/>
<path d="M0 0 C0.33 0 0.66 0 1 0 C1 6 1 6 -1 9 C-1.66 9 -2.32 9 -3 9 C-1 2 -1 2 0 0 Z " fill="#D2D2D1" transform="translate(857,307)"/>
<path d="M0 0 C1.32 0.33 2.64 0.66 4 1 C1.69 2.65 -0.62 4.3 -3 6 C-4.32 5.67 -5.64 5.34 -7 5 C-5.35 4.67 -3.7 4.34 -2 4 C-1.34 2.68 -0.68 1.36 0 0 Z " fill="#DCDCDC" transform="translate(420,212)"/>
<path d="M0 0 C0.66 0.33 1.32 0.66 2 1 C0.02 3.31 -1.96 5.62 -4 8 C-4.66 7.67 -5.32 7.34 -6 7 C-4.02 4.69 -2.04 2.38 0 0 Z " fill="#C9C9C9" transform="translate(535,393)"/>
<path d="M0 0 C1 3 1 3 -1 8 C-1.66 7.67 -2.32 7.34 -3 7 C-2 2 -2 2 0 0 Z " fill="#E8E8E8" transform="translate(1151,371)"/>
<path d="M0 0 C1.32 0.33 2.64 0.66 4 1 C3.67 1.165 3.67 1.165 2 2 C1.34 3.98 0.68 5.96 0 8 C-0.66 6.68 -1.32 5.36 -2 4 C-1.34 2.68 -0.68 1.36 0 0 Z " fill="#DDDDDD" transform="translate(869,326)"/>
<path d="M0 0 C5 5 5 5 6 8 C5.34 8 4.68 8 4 8 C4 7.34 4 6.68 4 6 C2.68 5.67 1.36 5.34 0 5 C0 3.35 0 1.7 0 0 Z " fill="#D6D6D6" transform="translate(397,305)"/>
<path d="M0 0 C0 0.99 0 1.98 0 3 C-2.97 2.67 -5.94 2.34 -9 2 C-6 0 -6 0 0 0 Z " fill="#CECECE" transform="translate(561,231)"/>
<path d="M0 0 C3 3 3 3 5 7 C3.35 6.67 1.7 6.34 0 6 C0 4.02 0 2.04 0 0 Z " fill="#D7D7D7" transform="translate(381,416)"/>
<path d="M0 0 C0.66 0.33 1.32 0.66 2 1 C2.33 2.98 2.66 4.96 3 7 C2.01 7 1.02 7 0 7 C-1 3 -1 3 0 0 Z " fill="#D2D2D2" transform="translate(1104,379)"/>
<path d="M0 0 C5 2 5 2 7 4 C6.67 4.99 6.34 5.98 6 7 C4.02 4.69 2.04 2.38 0 0 Z " fill="#DADADA" transform="translate(281,375)"/>
<path d="M0 0 C0.99 0.33 1.98 0.66 3 1 C2.01 2.98 1.02 4.96 0 7 C-0.66 6.01 -1.32 5.02 -2 4 C-1.34 2.68 -0.68 1.36 0 0 Z " fill="#E2E2E2" transform="translate(367,377)"/>
<path d="M0 0 C-2.97 1.32 -5.94 2.64 -9 4 C-9.66 3.34 -10.32 2.68 -11 2 C-4 -1 -4 -1 0 0 Z " fill="#CCCDCC" transform="translate(1513,273)"/>
<path d="M0 0 C0.99 0.33 1.98 0.66 3 1 C2.505 2.32 2.505 2.32 0 9 C-0.33 9 -0.66 9 -1 9 C-1 1 -1 1 0 0 Z " fill="#DFDFDF" transform="translate(331,179)"/>
<path d="M0 0 C0.33 0.99 0.66 1.98 1 3 C0.67 3.33 0.34 3.66 0 4 C-3.3 4 -6.6 4 -10 4 C-10 3.67 -10 3.34 -10 3 C-7.36 2.67 -4.72 2.34 -2 2 C-1.34 1.34 -0.68 0.68 0 0 Z " fill="#9F9F9F" transform="translate(966,365)"/>
<path d="M0 0 C0.99 0.33 1.98 0.66 3 1 C3.33 3.64 3.66 6.28 4 9 C2 7 2 7 0 0 Z " fill="#DDDEDD" transform="translate(261,342)"/>
<path d="M0 0 C2.64 0 5.28 0 8 0 C8 0.33 8 0.66 8 1 C5 2 2 3 -1 4 C-0.67 2.68 -0.34 1.36 0 0 Z " fill="#181818" transform="translate(403,153)"/>
<path d="M0 0 C1.98 0.66 3.96 1.32 6 2 C6 2.66 6 3.32 6 4 C1 3 1 3 -1 1 C-0.67 0.67 -0.34 0.34 0 0 Z " fill="#E3E3E3" transform="translate(1496,386)"/>
<path d="M0 0 C0.825 0.33 0.825 0.33 5 2 C5 2.66 5 3.32 5 4 C4.01 3.835 4.01 3.835 -1 3 C-0.67 2.01 -0.34 1.02 0 0 Z " fill="#F2F2F1" transform="translate(1103,385)"/>
<path d="M0 0 C0.99 0.33 1.98 0.66 3 1 C3.33 3.31 3.66 5.62 4 8 C1 4 1 4 0 0 Z " fill="#EEEEEE" transform="translate(611,364)"/>
<path d="M0 0 C0.33 0 0.66 0 1 0 C1.33 2.31 1.66 4.62 2 7 C1.34 7 0.68 7 0 7 C0 7.66 0 8.32 0 9 C-0.66 9 -1.32 9 -2 9 C-1.34 6.03 -0.68 3.06 0 0 Z " fill="#E2E2E1" transform="translate(669,351)"/>
<path d="M0 0 C1.98 1.65 3.96 3.3 6 5 C5.67 5.66 5.34 6.32 5 7 C3.68 6.34 2.36 5.68 1 5 C0.67 3.35 0.34 1.7 0 0 Z " fill="#D1D1D1" transform="translate(691,237)"/>
<path d="M0 0 C0.33 1.32 0.66 2.64 1 4 C0.67 4.495 0.67 4.495 -1 7 C-1.99 6.67 -2.98 6.34 -4 6 C-2.68 4.02 -1.36 2.04 0 0 Z " fill="#C6C6C6" transform="translate(871,234)"/>
<path d="M0 0 C0.66 0.33 1.32 0.66 2 1 C0.68 2.65 -0.64 4.3 -2 6 C-2.66 6 -3.32 6 -4 6 C-2 2 -2 2 0 0 Z " fill="#E2E2E2" transform="translate(489,212)"/>
<path d="M0 0 C0.66 0 1.32 0 2 0 C0 4 0 4 -3 8 C-2 2 -2 2 0 0 Z " fill="#CBCBCB" transform="translate(461,213)"/>
<path d="M0 0 C1 4 1 4 -1 8 C-1.66 8 -2.32 8 -3 8 C-1 2 -1 2 0 0 Z " fill="#E3E4E3" transform="translate(391,136)"/>
<path d="M0 0 C0.99 0.33 1.98 0.66 3 1 C2.01 2.32 1.02 3.64 0 5 C-0.99 4.67 -1.98 4.34 -3 4 C-2.01 2.68 -1.02 1.36 0 0 Z " fill="#E3E3E3" transform="translate(415,368)"/>
<path d="M0 0 C0.33 1.32 0.66 2.64 1 4 C0.67 4.495 0.67 4.495 -1 7 C-1.66 7 -2.32 7 -3 7 C-1 1 -1 1 0 0 Z " fill="#DCDEDC" transform="translate(377,325)"/>
<path d="M0 0 C1.98 1.65 3.96 3.3 6 5 C5.01 5.33 4.02 5.66 3 6 C0 2 0 2 0 0 Z " fill="#DFDFDF" transform="translate(1453,298)"/>
<path d="M0 0 C0.66 0 1.32 0 2 0 C1.34 1.32 0.68 2.64 0 4 C-1.65 4.33 -3.3 4.66 -5 5 C-3.35 3.35 -1.7 1.7 0 0 Z " fill="#D7D7D7" transform="translate(1498,277)"/>
<path d="M0 0 C1.98 0 3.96 0 6 0 C6 0.99 6 1.98 6 3 C5.01 2.835 5.01 2.835 0 2 C0 1.34 0 0.68 0 0 Z " fill="#F7F7F7" transform="translate(1531,272)"/>
<path d="M0 0 C0.66 0 1.32 0 2 0 C1.34 1.32 0.68 2.64 0 4 C-0.66 4 -1.32 4 -2 4 C-2 4.66 -2 5.32 -2 6 C-2.66 5.67 -3.32 5.34 -4 5 C-2.68 3.35 -1.36 1.7 0 0 Z " fill="#CECECE" transform="translate(621,236)"/>
<path d="M0 0 C-2 4 -2 4 -4 5 C-4.66 4.34 -5.32 3.68 -6 3 C-2 0 -2 0 0 0 Z " fill="#DADADA" transform="translate(303,203)"/>
<path d="M0 0 C0.99 0 1.98 0 3 0 C2.34 1.98 1.68 3.96 1 6 C0.34 4.68 -0.32 3.36 -1 2 C-0.67 1.34 -0.34 0.68 0 0 Z " fill="#E2E2E2" transform="translate(350,436)"/>
<path d="M0 0 C0 0.66 0 1.32 0 2 C0.66 2.33 1.32 2.66 2 3 C-0.64 2.67 -3.28 2.34 -6 2 C-3 0 -3 0 0 0 Z " fill="#C4C3C3" transform="translate(950,388)"/>
<path d="M0 0 C1.32 0.33 2.64 0.66 4 1 C4.33 2.65 4.66 4.3 5 6 C3.35 4.35 1.7 2.7 0 1 C0 0.67 0 0.34 0 0 Z " fill="#F1F1F1" transform="translate(615,372)"/>
<path d="M0 0 C0.99 0 1.98 0 3 0 C2.34 1.65 1.68 3.3 1 5 C0.34 3.68 -0.32 2.36 -1 1 C-0.67 0.67 -0.34 0.34 0 0 Z " fill="#E4E4E4" transform="translate(398,320)"/>
<path d="M0 0 C0.33 0.66 0.66 1.32 1 2 C0.34 3.65 -0.32 5.3 -1 7 C-1.66 5.68 -2.32 4.36 -3 3 C-2.01 2.01 -1.02 1.02 0 0 Z " fill="#C3C3C3" transform="translate(1091,308)"/>
<path d="M0 0 C0.99 0 1.98 0 3 0 C2.34 1.98 1.68 3.96 1 6 C0.34 4.68 -0.32 3.36 -1 2 C-0.67 1.34 -0.34 0.68 0 0 Z " fill="#E5E5E5" transform="translate(397,159)"/>
<path d="M0 0 C0.66 0.33 1.32 0.66 2 1 C0.68 1.99 -0.64 2.98 -2 4 C-2.99 3.67 -3.98 3.34 -5 3 C-3.35 2.01 -1.7 1.02 0 0 Z " fill="#CBCBCB" transform="translate(546,386)"/>
<path d="M0 0 C0.99 0.33 1.98 0.66 3 1 C2.67 1.99 2.34 2.98 2 4 C1.01 4 0.02 4 -1 4 C-0.67 2.68 -0.34 1.36 0 0 Z " fill="#F6F7F6" transform="translate(1435,384)"/>
<path d="M0 0 C0.66 0 1.32 0 2 0 C2 1.65 2 3.3 2 5 C1.01 4.67 0.02 4.34 -1 4 C-0.67 2.68 -0.34 1.36 0 0 Z " fill="#424343" transform="translate(1532,375)"/>
<path d="M0 0 C0.66 0.33 1.32 0.66 2 1 C0.68 2.32 -0.64 3.64 -2 5 C-2.66 4.34 -3.32 3.68 -4 3 C-2.68 2.01 -1.36 1.02 0 0 Z " fill="#DCDCDC" transform="translate(489,368)"/>
<path d="M0 0 C2 3 2 3 3 7 C1.68 6.34 0.36 5.68 -1 5 C-0.67 3.35 -0.34 1.7 0 0 Z " fill="#DCDCDC" transform="translate(1759,355)"/>
<path d="M0 0 C4 4 4 4 4 6 C3.01 6 2.02 6 1 6 C0.67 4.02 0.34 2.04 0 0 Z " fill="#CFCFCF" transform="translate(336,312)"/>
<path d="M0 0 C0.66 0.33 1.32 0.66 2 1 C1.34 2.65 0.68 4.3 0 6 C-0.66 5.67 -1.32 5.34 -2 5 C-1.34 3.35 -0.68 1.7 0 0 Z " fill="#EFEFEF" transform="translate(1757,302)"/>
<path d="M0 0 C0.33 0 0.66 0 1 0 C1 1.65 1 3.3 1 5 C0.01 5 -0.98 5 -2 5 C-1.34 3.35 -0.68 1.7 0 0 Z " fill="#DCDCDB" transform="translate(1492,282)"/>
<path d="M0 0 C1.32 0 2.64 0 4 0 C3.67 1.65 3.34 3.3 3 5 C0 1 0 1 0 0 Z " fill="#EDEEEE" transform="translate(351,134)"/>
<path d="M0 0 C0.99 0 1.98 0 3 0 C2.34 1.32 1.68 2.64 1 4 C0.34 4 -0.32 4 -1 4 C-0.67 2.68 -0.34 1.36 0 0 Z " fill="#F3F4F4" transform="translate(222,402)"/>
<path d="M0 0 C1.32 0.99 2.64 1.98 4 3 C4 3.66 4 4.32 4 5 C3.01 5 2.02 5 1 5 C0.67 3.35 0.34 1.7 0 0 Z " fill="#2A2A2A" transform="translate(288,383)"/>
<path d="M0 0 C2 3 2 3 2 5 C1.01 4.67 0.02 4.34 -1 4 C-1.33 3.01 -1.66 2.02 -2 1 C-1.34 0.67 -0.68 0.34 0 0 Z " fill="#E8E8E8" transform="translate(1767,375)"/>
<path d="M0 0 C0.66 0 1.32 0 2 0 C2 1.98 2 3.96 2 6 C1.67 5.01 1.34 4.02 1 3 C0.34 3 -0.32 3 -1 3 C-0.67 2.01 -0.34 1.02 0 0 Z " fill="#5D5D5D" transform="translate(768,375)"/>
<path d="M0 0 C0.99 0 1.98 0 3 0 C2.34 1.32 1.68 2.64 1 4 C0.34 4 -0.32 4 -1 4 C-0.67 2.68 -0.34 1.36 0 0 Z " fill="#ECEDEC" transform="translate(350,374)"/>
<path d="M0 0 C1.32 0.99 2.64 1.98 4 3 C4 3.66 4 4.32 4 5 C3.01 5 2.02 5 1 5 C0.67 3.35 0.34 1.7 0 0 Z " fill="#C7C7C7" transform="translate(790,282)"/>
<path d="M0 0 C0.66 1.32 1.32 2.64 2 4 C1.01 4.33 0.02 4.66 -1 5 C-0.67 3.35 -0.34 1.7 0 0 Z " fill="#E2E2E1" transform="translate(101,417)"/>
<path d="M0 0 C0.99 0 1.98 0 3 0 C3.33 1.32 3.66 2.64 4 4 C2.68 3.34 1.36 2.68 0 2 C0 1.34 0 0.68 0 0 Z " fill="#E5E5E5" transform="translate(931,381)"/>
<path d="M0 0 C0.99 0 1.98 0 3 0 C3.33 1.32 3.66 2.64 4 4 C2.68 3.34 1.36 2.68 0 2 C0 1.34 0 0.68 0 0 Z " fill="#DEDEDE" transform="translate(624,381)"/>
<path d="M0 0 C1.32 0.33 2.64 0.66 4 1 C4 1.99 4 2.98 4 4 C2.68 2.68 1.36 1.36 0 0 Z " fill="#F2F2F2" transform="translate(927,378)"/>
<path d="M0 0 C1.32 0.33 2.64 0.66 4 1 C3.67 1.495 3.67 1.495 2 4 C1.34 2.68 0.68 1.36 0 0 Z " fill="#D9D9D9" transform="translate(620,378)"/>
<path d="M0 0 C0.66 0.33 1.32 0.66 2 1 C2 2.32 2 3.64 2 5 C1.01 4.67 0.02 4.34 -1 4 C-0.67 2.68 -0.34 1.36 0 0 Z " fill="#C6C6C6" transform="translate(1102,374)"/>
<path d="M0 0 C0.66 0 1.32 0 2 0 C1.34 1.32 0.68 2.64 0 4 C0 2.68 0 1.36 0 0 Z " fill="#F3F3F3" transform="translate(1152,368)"/>
<path d="M0 0 C0.33 0.66 0.66 1.32 1 2 C0.01 2.99 -0.98 3.98 -2 5 C-2.66 4.34 -3.32 3.68 -4 3 C-2.68 2.01 -1.36 1.02 0 0 Z " fill="#D7D7D7" transform="translate(666,361)"/>
<path d="M0 0 C0.33 1.32 0.66 2.64 1 4 C0.01 4.33 -0.98 4.66 -2 5 C-1.34 3.35 -0.68 1.7 0 0 Z " fill="#181818" transform="translate(870,331)"/>
<path d="M0 0 C0.33 1.32 0.66 2.64 1 4 C0.01 4.33 -0.98 4.66 -2 5 C-1.34 3.35 -0.68 1.7 0 0 Z " fill="#F1F1F0" transform="translate(850,325)"/>
<path d="M0 0 C0.33 1.32 0.66 2.64 1 4 C0.01 4.33 -0.98 4.66 -2 5 C-1.34 3.35 -0.68 1.7 0 0 Z " fill="#E0E0DF" transform="translate(1725,305)"/>
<path d="M0 0 C0.99 0.33 1.98 0.66 3 1 C2.01 2.32 1.02 3.64 0 5 C-0.33 3.68 -0.66 2.36 -1 1 C-0.67 0.67 -0.34 0.34 0 0 Z " fill="#DEDEDE" transform="translate(354,231)"/>
<path d="M0 0 C0.99 0.99 1.98 1.98 3 3 C3 3.66 3 4.32 3 5 C2.01 5 1.02 5 0 5 C0 3.35 0 1.7 0 0 Z " fill="#DBDBDB" transform="translate(349,214)"/>
<path d="M0 0 C0.99 0 1.98 0 3 0 C3.33 0.99 3.66 1.98 4 3 C3.01 3 2.02 3 1 3 C0.67 2.01 0.34 1.02 0 0 Z " fill="#E5E5E5" transform="translate(327,422)"/>
<path d="M0 0 C1.32 0.33 2.64 0.66 4 1 C3.67 1.99 3.34 2.98 3 4 C2.01 2.68 1.02 1.36 0 0 Z " fill="#E0E0DF" transform="translate(1489,382)"/>
<path d="M0 0 C1.32 0 2.64 0 4 0 C3.67 0.99 3.34 1.98 3 3 C2.34 3 1.68 3 1 3 C0.67 2.01 0.34 1.02 0 0 Z " fill="#EEEEEE" transform="translate(627,383)"/>
<path d="M0 0 C1.32 0.33 2.64 0.66 4 1 C3.67 1.99 3.34 2.98 3 4 C2.01 2.68 1.02 1.36 0 0 Z " fill="#E7E7E7" transform="translate(288,382)"/>
<path d="M0 0 C0.66 0.33 0.66 0.33 4 2 C3.34 2.66 2.68 3.32 2 4 C1.34 2.68 0.68 1.36 0 0 Z " fill="#DDDEDE" transform="translate(276,368)"/>
<path d="M0 0 C2 2 2 2 2 5 C1.01 4.67 0.02 4.34 -1 4 C-0.67 2.68 -0.34 1.36 0 0 Z " fill="#E4E4E4" transform="translate(1464,313)"/>
<path d="M0 0 C1.32 0.33 2.64 0.66 4 1 C3.67 1.99 3.34 2.98 3 4 C2.01 2.68 1.02 1.36 0 0 Z " fill="#D4D5D5" transform="translate(835,252)"/>
<path d="M0 0 C0.825 0.165 0.825 0.165 5 1 C4.34 1.66 3.68 2.32 3 3 C2.01 2.01 1.02 1.02 0 0 Z " fill="#E9E8E8" transform="translate(537,224)"/>
<path d="M0 0 C0.66 0 1.32 0 2 0 C1.67 1.65 1.34 3.3 1 5 C0.34 3.68 -0.32 2.36 -1 1 C-0.67 0.67 -0.34 0.34 0 0 Z " fill="#E7E7E7" transform="translate(338,165)"/>
<path d="M0 0 C0.66 0 1.32 0 2 0 C2 0.99 2 1.98 2 3 C1.01 3 0.02 3 -1 3 C-0.67 2.01 -0.34 1.02 0 0 Z " fill="#818181" transform="translate(871,327)"/>
<path d="M0 0 C0.66 0 1.32 0 2 0 C1.67 1.32 1.34 2.64 1 4 C0.34 3.01 -0.32 2.02 -1 1 C-0.67 0.67 -0.34 0.34 0 0 Z " fill="#DADADA" transform="translate(1085,318)"/>
<path d="M0 0 C0.66 0.33 0.66 0.33 4 2 C3.34 2.66 2.68 3.32 2 4 C1.34 2.68 0.68 1.36 0 0 Z " fill="#E3E3E3" transform="translate(367,292)"/>
<path d="M0 0 C0.66 0.33 0.66 0.33 4 2 C3.34 2.66 2.68 3.32 2 4 C1.34 2.68 0.68 1.36 0 0 Z " fill="#E3E3E3" transform="translate(363,286)"/>
<path d="M0 0 C0.66 0.33 0.66 0.33 4 2 C3.34 2.66 2.68 3.32 2 4 C1.34 2.68 0.68 1.36 0 0 Z " fill="#E0E0E0" transform="translate(359,280)"/>
<path d="M0 0 C0.99 0.33 1.98 0.66 3 1 C2.01 1.66 1.02 2.32 0 3 C0 2.01 0 1.02 0 0 Z " fill="#E9E9E9" transform="translate(692,376)"/>
<path d="M0 0 C0.99 0.33 1.98 0.66 3 1 C2.67 1.495 2.67 1.495 1 4 C0.67 2.68 0.34 1.36 0 0 Z " fill="#EAEAE8" transform="translate(611,364)"/>
<path d="M0 0 C0.99 0.33 1.98 0.66 3 1 C2.67 1.495 2.67 1.495 1 4 C0.67 2.68 0.34 1.36 0 0 Z " fill="#E5E5E4" transform="translate(267,354)"/>
<path d="M0 0 C0.99 0.33 1.98 0.66 3 1 C2.67 1.495 2.67 1.495 1 4 C0.67 2.68 0.34 1.36 0 0 Z " fill="#EBEBEB" transform="translate(261,342)"/>
<path d="M0 0 C0.66 0 1.32 0 2 0 C2 0.99 2 1.98 2 3 C1.01 2.67 0.02 2.34 -1 2 C-0.67 1.34 -0.34 0.68 0 0 Z " fill="#F3F4F3" transform="translate(1560,296)"/>
<path d="M0 0 C0.66 0.99 1.32 1.98 2 3 C1.01 3.33 0.02 3.66 -1 4 C-0.67 2.68 -0.34 1.36 0 0 Z " fill="#DEDEDC" transform="translate(380,157)"/>
<path d="M0 0 C0.99 0.33 1.98 0.66 3 1 C2.34 1.66 1.68 2.32 1 3 C0.67 2.01 0.34 1.02 0 0 Z " fill="#E2E2E2" transform="translate(359,414)"/>
<path d="M0 0 C0.99 0.33 1.98 0.66 3 1 C2.34 1.66 1.68 2.32 1 3 C0.67 2.01 0.34 1.02 0 0 Z " fill="#E1E1E1" transform="translate(356,409)"/>
<path d="M0 0 C0.99 0.33 1.98 0.66 3 1 C2.34 1.66 1.68 2.32 1 3 C0.67 2.01 0.34 1.02 0 0 Z " fill="#E0E1E1" transform="translate(84,399)"/>
<path d="M0 0 C0.99 0.33 1.98 0.66 3 1 C2.34 1.66 1.68 2.32 1 3 C0.67 2.01 0.34 1.02 0 0 Z " fill="#DADADA" transform="translate(271,361)"/>
<path d="M0 0 C0.66 0.66 1.32 1.32 2 2 C1.01 2 0.02 2 -1 2 C-0.67 1.34 -0.34 0.68 0 0 Z " fill="#D9DADA" transform="translate(1520,336)"/>
</svg>
